<?xml version="1.0" encoding="UTF-8"?>
<svg id="Layer_2" data-name="Layer 2" xmlns="http://www.w3.org/2000/svg" viewBox="0 0 457.7 150.93">
  <defs>
    <style>
      .cls-1 {
        fill: #fff;
      }
    </style>
  </defs>
  <g id="Artwork">
    <g>
      <rect width="457.7" height="150.93"/>
      <g id="_Group_3" data-name=" Group 3">
        <path id="_Path_" data-name=" Path " class="cls-1" d="M97.87,76.04c.08-6.16,3.31-11.85,8.56-15.08-3.33-4.75-8.7-7.66-14.5-7.84-6.1-.64-12.01,3.65-15.12,3.65s-7.95-3.59-13.11-3.48c-6.78.22-12.95,3.98-16.25,9.91-7.02,12.16-1.78,30.03,4.94,39.87,3.37,4.81,7.3,10.19,12.45,10,5.04-.21,6.92-3.21,13-3.21s7.79,3.21,13.04,3.09c5.41-.09,8.81-4.84,12.06-9.69,2.42-3.43,4.28-7.22,5.51-11.23-6.42-2.72-10.6-9.01-10.6-15.98Z"/>
        <path id="_Path_2" data-name=" Path 2" class="cls-1" d="M87.95,46.65c2.95-3.54,4.4-8.09,4.05-12.68-4.5.47-8.66,2.63-11.65,6.03-2.95,3.36-4.44,7.75-4.15,12.21,4.56.05,8.9-2,11.76-5.56Z"/>
      </g>
      <path class="cls-1" d="M161.55,100.88h-17.19l-4.13,12.19h-7.28l16.28-45.1h7.57l16.28,45.1h-7.41l-4.12-12.19ZM146.14,95.25h13.63l-6.72-19.78h-.19l-6.72,19.78Z"/>
      <path class="cls-1" d="M208.25,96.63c0,10.22-5.47,16.78-13.72,16.78-4.27.22-8.28-2.01-10.35-5.75h-.16v16.29h-6.75v-43.76h6.53v5.47h.12c2.15-3.72,6.18-5.95,10.47-5.81,8.35,0,13.85,6.6,13.85,16.79ZM201.31,96.63c0-6.66-3.44-11.03-8.69-11.03s-8.63,4.47-8.63,11.03,3.47,11.06,8.63,11.06,8.69-4.34,8.69-11.06Z"/>
      <path class="cls-1" d="M244.44,96.63c0,10.22-5.47,16.78-13.72,16.78-4.27.22-8.28-2.01-10.35-5.75h-.16v16.29h-6.75v-43.76h6.53v5.47h.12c2.15-3.72,6.18-5.95,10.47-5.81,8.35,0,13.85,6.6,13.85,16.79ZM237.51,96.63c0-6.66-3.44-11.03-8.69-11.03s-8.63,4.47-8.63,11.03,3.47,11.06,8.63,11.06,8.69-4.34,8.69-11.06h0Z"/>
      <path class="cls-1" d="M268.36,100.5c.5,4.47,4.85,7.41,10.78,7.41s9.78-2.94,9.78-6.97c0-3.5-2.47-5.6-8.31-7.03l-5.85-1.41c-8.28-2-12.13-5.87-12.13-12.16,0-7.78,6.78-13.13,16.41-13.13s16.06,5.35,16.28,13.13h-6.81c-.41-4.5-4.13-7.22-9.57-7.22s-9.16,2.75-9.16,6.75c0,3.19,2.38,5.06,8.19,6.5l4.97,1.22c9.25,2.19,13.1,5.91,13.1,12.5,0,8.44-6.72,13.72-17.41,13.72-10,0-16.76-5.16-17.19-13.32h6.91Z"/>
      <path class="cls-1" d="M310.62,72.4v7.78h6.25v5.35h-6.25v18.13c0,2.82,1.25,4.13,4,4.13.74-.01,1.48-.07,2.22-.16v5.31c-1.24.23-2.49.34-3.75.31-6.66,0-9.25-2.5-9.25-8.88v-18.85h-4.78v-5.35h4.78v-7.78h6.78Z"/>
      <path class="cls-1" d="M320.5,96.63c0-10.35,6.09-16.85,15.6-16.85s15.6,6.5,15.6,16.85-6.03,16.85-15.6,16.85-15.6-6.47-15.6-16.85ZM344.82,96.63c0-7.1-3.25-11.29-8.72-11.29s-8.72,4.22-8.72,11.29,3.25,11.28,8.72,11.28,8.72-4.16,8.72-11.28h0Z"/>
      <path class="cls-1" d="M357.26,80.18h6.44v5.6h.16c.9-3.6,4.2-6.08,7.91-5.94.78,0,1.55.08,2.31.25v6.31c-.98-.3-2.01-.44-3.03-.41-3.75-.15-6.92,2.77-7.07,6.52-.01.35,0,.7.04,1.05v19.5h-6.75v-32.88Z"/>
      <path class="cls-1" d="M405.2,103.41c-.91,5.97-6.72,10.07-14.16,10.07-9.57,0-15.5-6.41-15.5-16.69s5.97-17,15.22-17,14.82,6.25,14.82,16.22v2.31h-23.22v.41c-.42,4.71,3.06,8.87,7.78,9.29.36.03.71.04,1.07.03,3.28.31,6.36-1.57,7.59-4.63h6.41ZM382.38,93.59h16.44c.24-4.36-3.1-8.09-7.46-8.34-.2-.01-.41-.01-.61-.01-4.6-.03-8.35,3.68-8.37,8.27,0,.02,0,.05,0,.07Z"/>
      <path class="cls-1" d="M145.3,34.01c5.28-.38,9.87,3.6,10.25,8.88.05.63.03,1.26-.05,1.89,0,6.92-3.74,10.9-10.2,10.9h-7.83v-21.67h7.83ZM140.83,52.62h4.09c3.76.22,6.98-2.64,7.21-6.39.03-.47,0-.94-.06-1.4.51-3.74-2.1-7.18-5.84-7.7-.43-.06-.87-.08-1.31-.05h-4.09v15.54Z"/>
      <path class="cls-1" d="M159.3,47.5c-.41-4.26,2.72-8.04,6.97-8.45,4.26-.41,8.04,2.72,8.45,6.97.05.49.05.98,0,1.48.41,4.26-2.7,8.05-6.96,8.46-4.26.41-8.05-2.7-8.46-6.96-.05-.5-.05-1,0-1.5ZM171.4,47.5c0-3.55-1.59-5.62-4.39-5.62s-4.38,2.07-4.38,5.62,1.58,5.63,4.38,5.63c2.79,0,4.39-2.07,4.39-5.63h0Z"/>
      <path class="cls-1" d="M195.23,55.69h-3.35l-3.38-12.05h-.26l-3.37,12.05h-3.32l-4.51-16.35h3.27l2.93,12.48h.24l3.36-12.48h3.1l3.36,12.48h.26l2.92-12.48h3.23l-4.49,16.35Z"/>
      <path class="cls-1" d="M203.51,39.33h3.11v2.6h.24c.84-1.91,2.8-3.08,4.88-2.91,2.93-.22,5.48,1.98,5.7,4.91.03.39.02.79-.04,1.18v10.59h-3.23v-9.78c0-2.63-1.14-3.94-3.53-3.94-2.07-.1-3.83,1.5-3.92,3.57,0,.19,0,.38.02.57v9.57h-3.23v-16.35Z"/>
      <path class="cls-1" d="M222.54,32.95h3.23v22.74h-3.23v-22.74Z"/>
      <path class="cls-1" d="M230.25,47.5c-.41-4.26,2.72-8.04,6.98-8.45,4.26-.41,8.04,2.72,8.45,6.98.05.49.05.98,0,1.47.41,4.26-2.7,8.05-6.96,8.46s-8.05-2.7-8.46-6.96c-.05-.5-.05-1,0-1.5ZM242.36,47.5c0-3.55-1.59-5.62-4.39-5.62s-4.38,2.07-4.38,5.62,1.58,5.63,4.38,5.63c2.79,0,4.39-2.07,4.39-5.63Z"/>
      <path class="cls-1" d="M249.08,51.06c0-2.94,2.19-4.64,6.08-4.88l4.43-.26v-1.41c0-1.73-1.14-2.7-3.35-2.7-1.8,0-3.05.66-3.41,1.82h-3.12c.33-2.81,2.97-4.61,6.68-4.61,4.1,0,6.41,2.04,6.41,5.5v11.17h-3.11v-2.3h-.26c-1.06,1.68-2.93,2.66-4.91,2.57-2.71.28-5.14-1.69-5.43-4.4-.02-.16-.03-.33-.03-.49ZM259.59,49.66v-1.37l-3.99.26c-2.25.15-3.27.92-3.27,2.36s1.28,2.33,3.03,2.33c2.12.21,4.01-1.33,4.22-3.45,0-.04,0-.09.01-.13Z"/>
      <path class="cls-1" d="M267.05,47.5c0-5.17,2.66-8.44,6.79-8.44,2.09-.1,4.04,1.02,5.02,2.87h.24v-8.98h3.23v22.74h-3.09v-2.58h-.26c-1.05,1.83-3.03,2.93-5.14,2.85-4.16,0-6.79-3.27-6.79-8.45ZM270.38,47.5c0,3.47,1.64,5.56,4.37,5.56s4.4-2.12,4.4-5.54-1.7-5.56-4.4-5.56-4.37,2.1-4.37,5.54h0Z"/>
      <path class="cls-1" d="M295.67,47.5c-.41-4.26,2.72-8.04,6.97-8.45s8.04,2.72,8.45,6.97c.05.49.05.98,0,1.48.41,4.26-2.7,8.05-6.96,8.46-4.26.41-8.05-2.7-8.46-6.96-.05-.5-.05-1,0-1.5ZM307.78,47.5c0-3.55-1.59-5.62-4.39-5.62s-4.38,2.07-4.38,5.62,1.58,5.63,4.38,5.63c2.79,0,4.39-2.07,4.39-5.63Z"/>
      <path class="cls-1" d="M315.43,39.33h3.11v2.6h.24c.84-1.91,2.8-3.08,4.88-2.91,2.93-.22,5.48,1.98,5.7,4.91.03.39.02.79-.04,1.18v10.59h-3.23v-9.78c0-2.63-1.14-3.94-3.53-3.94-2.07-.1-3.83,1.5-3.92,3.57,0,.19,0,.38.02.57v9.57h-3.23v-16.35Z"/>
      <path class="cls-1" d="M347.56,35.26v4.15h3.54v2.72h-3.54v8.41c0,1.71.71,2.46,2.31,2.46.41,0,.82-.03,1.23-.07v2.69c-.58.1-1.17.16-1.76.16-3.59,0-5.02-1.26-5.02-4.42v-9.24h-2.6v-2.72h2.6v-4.15h3.23Z"/>
      <path class="cls-1" d="M355.51,32.95h3.2v9.01h.26c.88-1.93,2.87-3.1,4.99-2.93,2.97-.16,5.51,2.12,5.67,5.09.02.34,0,.68-.04,1.01v10.56h-3.23v-9.76c0-2.61-1.22-3.94-3.5-3.94-2.1-.17-3.95,1.39-4.12,3.5-.02.22-.02.43,0,.65v9.55h-3.23v-22.74Z"/>
      <path class="cls-1" d="M388.4,51.27c-.91,3.08-3.89,5.08-7.09,4.73-4.1.11-7.51-3.13-7.62-7.23-.01-.41.01-.81.07-1.21-.55-4.13,2.35-7.92,6.47-8.48.35-.05.71-.07,1.07-.07,4.55,0,7.3,3.11,7.3,8.24v1.13h-11.55v.18c-.2,2.38,1.57,4.47,3.94,4.67.14.01.27.02.41.01,1.58.19,3.12-.59,3.89-1.98h3.11ZM377.05,46h8.26c.16-2.17-1.47-4.07-3.64-4.23-.13,0-.25-.01-.38,0-2.31-.03-4.21,1.82-4.23,4.13,0,.04,0,.07,0,.11h0Z"/>
    </g>
  </g>
</svg>