<?xml version="1.0" encoding="UTF-8"?>
<svg id="Layer_2" data-name="Layer 2" xmlns="http://www.w3.org/2000/svg" viewBox="0 0 457.7 150.93">
  <defs>
    <style>
      .cls-1 {
        fill: #4285f4;
      }

      .cls-2 {
        font-family: NHaasGroteskDSPro-65Md, 'Neue Haas Grotesk Display Pro';
        font-size: 29.8px;
        font-weight: 500;
      }

      .cls-2, .cls-3 {
        fill: #fff;
      }

      .cls-4 {
        fill: #34a853;
      }

      .cls-5 {
        letter-spacing: 0em;
      }

      .cls-6 {
        fill: #fbbc04;
      }

      .cls-7 {
        letter-spacing: 0em;
      }

      .cls-8 {
        fill: #ea4335;
      }

      .cls-9 {
        letter-spacing: 0em;
      }

      .cls-10 {
        letter-spacing: -.02em;
      }

      .cls-11 {
        letter-spacing: 0em;
      }

      .cls-12 {
        letter-spacing: 0em;
      }
    </style>
  </defs>
  <g id="Artwork">
    <g>
      <rect width="457.7" height="150.93"/>
      <g>
        <path class="cls-3" d="M228.84,83.21c-8.06,0-14.62,6.13-14.62,14.57s6.57,14.57,14.62,14.57,14.62-6.18,14.62-14.57-6.57-14.57-14.62-14.57ZM228.84,106.61c-4.41,0-8.22-3.64-8.22-8.83s3.81-8.83,8.22-8.83,8.22,3.59,8.22,8.83-3.81,8.83-8.22,8.83ZM196.93,83.21c-8.06,0-14.62,6.13-14.62,14.57s6.57,14.57,14.62,14.57,14.62-6.18,14.62-14.57-6.57-14.57-14.62-14.57ZM196.93,106.61c-4.42,0-8.22-3.64-8.22-8.83s3.81-8.83,8.22-8.83,8.22,3.59,8.22,8.83-3.81,8.83-8.22,8.83ZM158.98,87.68v6.18h14.79c-.44,3.48-1.6,6.02-3.37,7.78-2.15,2.15-5.52,4.53-11.42,4.53-9.11,0-16.22-7.34-16.22-16.45s7.12-16.45,16.22-16.45c4.91,0,8.5,1.93,11.15,4.41l4.36-4.36c-3.7-3.53-8.61-6.24-15.51-6.24-12.47,0-22.96,10.15-22.96,22.63s10.49,22.63,22.96,22.63c6.73,0,11.81-2.21,15.78-6.35,4.08-4.08,5.35-9.82,5.35-14.46,0-1.43-.11-2.76-.33-3.86h-20.8ZM314.19,92.48c-1.21-3.26-4.91-9.27-12.47-9.27s-13.74,5.9-13.74,14.57c0,8.17,6.18,14.57,14.46,14.57,6.68,0,10.54-4.08,12.14-6.46l-4.97-3.31c-1.66,2.43-3.92,4.03-7.17,4.03s-5.57-1.49-7.06-4.41l19.48-8.06-.66-1.66ZM294.32,97.34c-.17-5.63,4.36-8.5,7.62-8.5,2.54,0,4.69,1.27,5.41,3.09l-13.02,5.41ZM278.48,111.46h6.4v-42.82h-6.4v42.82ZM268,86.46h-.22c-1.43-1.71-4.19-3.26-7.67-3.26-7.28,0-13.96,6.4-13.96,14.62s6.68,14.51,13.96,14.51c3.48,0,6.24-1.55,7.67-3.31h.22v2.1c0,5.57-2.98,8.55-7.78,8.55-3.92,0-6.35-2.81-7.34-5.19l-5.57,2.32c1.6,3.86,5.85,8.61,12.91,8.61,7.51,0,13.85-4.41,13.85-15.18v-26.16h-6.07v2.37ZM260.66,106.61c-4.41,0-8.11-3.7-8.11-8.77s3.7-8.88,8.11-8.88,7.78,3.75,7.78,8.88-3.42,8.77-7.78,8.77ZM344.17,68.64h-15.32v42.82h6.39v-16.22h8.93c7.09,0,14.05-5.13,14.05-13.3s-6.96-13.3-14.05-13.3ZM344.34,89.28h-9.09v-14.68h9.09c4.78,0,7.49,3.96,7.49,7.34s-2.71,7.34-7.49,7.34ZM383.84,83.13c-4.63,0-9.42,2.04-11.4,6.56l5.67,2.37c1.21-2.37,3.47-3.14,5.84-3.14,3.31,0,6.67,1.98,6.72,5.51v.44c-1.16-.66-3.64-1.65-6.67-1.65-6.12,0-12.34,3.36-12.34,9.64,0,5.73,5.01,9.42,10.63,9.42,4.3,0,6.67-1.93,8.15-4.19h.22v3.31h6.17v-16.42c0-7.6-5.67-11.84-13-11.84ZM383.07,106.6c-2.09,0-5.01-1.05-5.01-3.64,0-3.31,3.64-4.57,6.78-4.57,2.81,0,4.13.61,5.84,1.43-.5,3.97-3.91,6.78-7.6,6.78ZM419.32,84.07l-7.33,18.57h-.22l-7.6-18.57h-6.89l11.4,25.95-6.5,14.43h6.67l17.57-40.38h-7.11ZM361.75,111.46h6.39v-42.82h-6.39v42.82Z"/>
        <path class="cls-8" d="M66.41,75.24l-36.47,38.71s0,.02,0,.02c1.12,4.2,4.96,7.3,9.51,7.3,1.82,0,3.53-.49,5-1.36l.12-.07,41.05-23.69-19.21-20.92Z"/>
        <path class="cls-6" d="M103.3,68.64l-.03-.02-17.72-10.28-19.97,17.77,20.04,20.03,17.63-10.17c3.09-1.67,5.19-4.93,5.19-8.68s-2.07-6.97-5.13-8.65Z"/>
        <path class="cls-1" d="M29.93,40.48c-.22.81-.33,1.66-.33,2.53v68.4c0,.88.11,1.73.34,2.53l37.72-37.72L29.93,40.48Z"/>
        <path class="cls-4" d="M66.68,77.21l18.87-18.87-41-23.77c-1.49-.89-3.23-1.41-5.09-1.41-4.56,0-8.4,3.1-9.52,7.31,0,0,0,0,0,0l36.74,36.73Z"/>
        <text class="cls-2" transform="translate(136.16 53.69)"><tspan class="cls-7" x="0" y="0">G</tspan><tspan class="cls-11" x="21.93" y="0">E</tspan><tspan class="cls-5" x="40.11" y="0">T </tspan><tspan class="cls-10" x="63.32" y="0">I</tspan><tspan class="cls-9" x="70.39" y="0">T </tspan><tspan class="cls-12" x="93.61" y="0">O</tspan><tspan x="115.52" y="0">N</tspan></text>
      </g>
    </g>
  </g>
</svg>